<svg width="105" height="64" viewBox="0 0 105 64" fill="none" xmlns="http://www.w3.org/2000/svg">
<path fill-rule="evenodd" clip-rule="evenodd" d="M30 32C30 26.1649 31.7 21.9838 34.1351 19.4568C36.8919 16.4703 41.8081 15 48.7459 15H55.2702C62.208 15 67.1242 16.4703 69.9269 19.4568C72.3161 21.9838 74.0161 26.1649 74.0161 32C74.0161 37.8351 72.3161 42.0162 69.9269 44.5432C67.1242 47.5297 62.208 49 55.2702 49H48.7459C41.8081 49 36.8919 47.5297 34.1351 44.5432C31.7 42.0162 30 37.8351 30 32ZM60.6459 27.9108C60.6459 27.4514 61.0134 27.0838 61.5188 27.0838H61.9783C62.4377 27.0838 62.8513 27.4514 62.8513 27.9108C62.8513 28.8297 62.8513 35.1703 62.8513 36.0892C62.8513 36.5486 62.4377 36.9162 61.9783 36.9162H61.5188C61.0134 36.9162 60.6459 36.5486 60.6459 36.0892C60.6459 35.1703 60.6459 28.8297 60.6459 27.9108ZM45.5756 36.8243V40.5459C45.5756 41.0054 45.2081 41.4189 44.7027 41.4189H44.2432C43.7837 41.4189 43.3702 41.0054 43.3702 40.5459V36.8243H43.2783C42.1297 36.8243 41.1648 35.8595 41.1648 34.7108V29.1973C41.1648 28.0486 42.1297 27.0838 43.2783 27.0838H49.8026L54.7648 21.0649L55.1324 20.8351L55.1783 20.7892H55.2243V20.7432H55.2702L55.3161 20.6973H55.3621V20.6514H55.408H55.454V20.6054H55.4999H55.5459V20.5595H55.5918H55.6378V20.5135H55.6837H55.7297H55.7756V20.4676H55.8215H55.8675H55.9134H55.9594V20.4216H56.0053H56.0513H56.0972H56.1432H56.1891H56.2351H56.281L56.327 20.3757H56.3729H56.4188V20.4216H56.4648H56.5107H56.5567H56.6026H56.6486H56.6945H56.7405L56.7864 20.4676H56.8324H56.8783H56.9242V20.5135H56.9702H57.0161H57.0621L57.108 20.5595H57.154L57.1999 20.6054H57.2459L57.2918 20.6514H57.3378L57.3837 20.6973H57.4297V20.7432H57.4756L57.5215 20.7892H57.5675V20.8351H57.6134C58.1188 21.2027 58.4405 21.8459 58.4405 22.5351V29.1973V32V32.0459V34.8486V41.4649C58.4405 42.1541 58.1188 42.7973 57.6134 43.1649H57.5675V43.2108H57.5215V43.2568H57.4756L57.4297 43.3027H57.3837L57.3378 43.3486H57.2918V43.3946H57.2459H57.1999V43.4405H57.154H57.108L57.0621 43.4865H57.0161H56.9702L56.9242 43.5324H56.8783H56.8324H56.7864V43.5784H56.7405H56.6945H56.6486H56.6026H56.5567H56.5107L56.4648 43.6243H56.4188H56.3729H56.327H56.281H56.2351V43.5784H56.1891H56.1432H56.0972H56.0513H56.0053H55.9594V43.5324H55.9134H55.8675H55.8215H55.7756V43.4865H55.7297H55.6837H55.6378V43.4405H55.5918H55.5459V43.3946H55.4999H55.454L55.408 43.3486H55.3621V43.3027H55.3161H55.2702V43.2568H55.2243L55.1783 43.2108H55.1324V43.1649L54.7648 42.9811L49.8026 36.8243H45.5756Z" fill="white"/>
</svg>
