<svg width="105" height="64" viewBox="0 0 105 64" fill="none" xmlns="http://www.w3.org/2000/svg">
<path fill-rule="evenodd" clip-rule="evenodd" d="M30.0322 32C30.0322 26.1649 31.7322 21.9838 34.1673 19.4568C36.9241 16.4703 41.8403 15 48.7781 15H55.3024C62.2402 15 67.1564 16.4703 69.9591 19.4568C72.3483 21.9838 74.0483 26.1649 74.0483 32C74.0483 37.8351 72.3483 42.0162 69.9591 44.5432C67.1564 47.5297 62.2402 49 55.3024 49H48.7781C41.8403 49 36.9241 47.5297 34.1673 44.5432C31.7322 42.0162 30.0322 37.8351 30.0322 32ZM45.6079 39.2135C46.8025 39.2135 47.8133 40.2243 47.8133 41.4189C47.8133 42.6135 46.8025 43.6243 45.6079 43.6243C44.4133 43.6243 43.4025 42.6135 43.4025 41.4189C43.4025 40.2243 44.4133 39.2135 45.6079 39.2135H44.2754H43.77H43.3565H43.3106C43.1727 39.2135 42.9889 39.2135 42.8511 39.1676H42.8052L42.7592 39.1216H42.7133C42.7133 39.1216 42.6673 39.1216 42.6673 39.0757H42.6214H42.5754L42.5295 39.0297H42.4835H42.4376L42.3917 38.9838H42.3457V38.9378H42.2998L42.2538 38.8919H42.2079L42.1619 38.8459H42.116V38.8H42.07L42.0241 38.7541L41.9781 38.7081H41.9322V38.6622H41.8862L41.8403 38.6162V38.5703H41.7944V38.5243C41.7484 38.5243 41.7484 38.4784 41.7484 38.4784L41.7025 38.4324L41.6565 38.3865V38.3405H41.6106C41.6106 38.2946 41.5646 38.2486 41.5187 38.2027V38.1568C41.3349 37.8351 41.1971 37.4676 41.1971 37.1V35.7216V32.873V24.7405V22.5811H39.8646C39.4052 22.5811 39.0376 22.2135 39.0376 21.7081V21.2486C39.0376 20.7892 39.4052 20.3757 39.8646 20.3757H42.07H42.5754L42.6214 20.4216H42.6673H42.7133H42.7592H42.8052H42.8511V20.4676H42.8971H42.943V20.5135H42.9889H43.0349V20.5595H43.0808V20.6054H43.1268V20.6514H43.1727V20.6973H43.2187V20.7432H43.2646V20.7892H43.3106V20.8351V20.8811H43.3565V20.927V20.973V21.0189H43.4025V21.0649V21.1108V21.1568V21.2027V21.2486V21.7081V22.5811C49.0078 22.5351 55.1646 22.5811 60.724 22.5811H60.77C61.9186 22.627 62.8835 23.5919 62.8835 24.7405V32.6892C62.8835 33.8378 61.9186 34.8027 60.77 34.8486H60.724H45.1484H44.2754C43.816 34.8486 43.4025 35.2162 43.4025 35.6757V35.7216V36.1811C43.4025 36.6405 43.816 37.0081 44.2754 37.0081H45.1484H62.0105C62.47 37.0081 62.8835 37.4216 62.8835 37.8811V38.3405C62.8835 38.8459 62.47 39.2135 62.0105 39.2135H58.4727C59.7132 39.2135 60.6781 40.2243 60.6781 41.4189C60.6781 42.6135 59.7132 43.6243 58.4727 43.6243C57.2781 43.6243 56.2673 42.6135 56.2673 41.4189C56.2673 40.2243 57.2781 39.2135 58.4727 39.2135H45.6079Z" fill="white"/>
</svg>
