<svg width="105" height="64" viewBox="0 0 105 64" fill="none" xmlns="http://www.w3.org/2000/svg">
<path fill-rule="evenodd" clip-rule="evenodd" d="M30.0479 32C30.0479 26.1649 31.7478 21.9838 34.183 19.4568C36.9397 16.4703 41.8559 15 48.7937 15H55.3181C62.2559 15 67.1721 16.4703 69.9748 19.4568C72.3639 21.9838 74.0639 26.1649 74.0639 32C74.0639 37.8351 72.3639 42.0162 69.9748 44.5432C67.1721 47.5297 62.2559 49 55.3181 49H48.7937C41.8559 49 36.9397 47.5297 34.183 44.5432C31.7478 42.0162 30.0479 37.8351 30.0479 32ZM43.3721 22.5811H47.1397V20.3757H57.018V22.5811H60.7397H60.7856C61.9342 22.627 62.8991 23.5919 62.8991 24.7405V27.4054H47.9667C47.5073 27.4054 47.1397 27.773 47.1397 28.2784V28.7378C47.1397 29.1973 47.5073 29.6108 47.9667 29.6108H58.8559H60.7397C61.9342 29.6108 62.8991 30.5757 62.8991 31.7243V33.7919V39.2595C62.8991 40.4541 61.9342 41.373 60.7856 41.4189H60.7397H57.018V43.6243H47.1397V41.4189H43.3721H43.3262C42.1775 41.373 41.2127 40.4541 41.2127 39.2595V36.5946H56.1451C56.6045 36.5946 57.018 36.227 57.018 35.7216V35.2622C57.018 34.8027 56.6045 34.3892 56.1451 34.3892H45.2559H43.3721C42.1775 34.3892 41.2127 33.4243 41.2127 32.2757V30.2081V24.7405C41.2127 23.5919 42.1775 22.627 43.3262 22.5811H43.3721Z" fill="white"/>
</svg>
