<svg width="93" height="62" viewBox="0 0 93 62" fill="none" xmlns="http://www.w3.org/2000/svg">
<path d="M46.0514 17.6666C38.6914 17.6666 32.7314 23.64 32.7314 31C32.7314 38.36 38.6914 44.3333 46.0514 44.3333C53.4248 44.3333 59.3981 38.36 59.3981 31C59.3981 23.64 53.4248 17.6666 46.0514 17.6666ZM55.2914 25.6666H51.3581C50.9314 24 50.3181 22.4 49.5181 20.92C51.9714 21.76 54.0114 23.4666 55.2914 25.6666ZM46.0648 20.3866C47.1714 21.9866 48.0381 23.76 48.6114 25.6666H43.5181C44.0914 23.76 44.9581 21.9866 46.0648 20.3866ZM35.7448 33.6666C35.5314 32.8133 35.3981 31.92 35.3981 31C35.3981 30.08 35.5314 29.1866 35.7448 28.3333H40.2514C40.1448 29.2133 40.0648 30.0933 40.0648 31C40.0648 31.9066 40.1448 32.7866 40.2514 33.6666H35.7448ZM36.8381 36.3333H40.7714C41.1981 38 41.8114 39.6 42.6114 41.08C40.1581 40.24 38.1181 38.5466 36.8381 36.3333ZM40.7714 25.6666H36.8381C38.1181 23.4533 40.1581 21.76 42.6114 20.92C41.8114 22.4 41.1981 24 40.7714 25.6666ZM46.0648 41.6133C44.9581 40.0133 44.0914 38.24 43.5181 36.3333H48.6114C48.0381 38.24 47.1714 40.0133 46.0648 41.6133ZM49.1848 33.6666H42.9448C42.8248 32.7866 42.7314 31.9066 42.7314 31C42.7314 30.0933 42.8248 29.2 42.9448 28.3333H49.1848C49.3048 29.2 49.3981 30.0933 49.3981 31C49.3981 31.9066 49.3048 32.7866 49.1848 33.6666ZM49.5181 41.08C50.3181 39.6 50.9314 38 51.3581 36.3333H55.2914C54.0114 38.5333 51.9714 40.24 49.5181 41.08ZM51.8781 33.6666C51.9848 32.7866 52.0648 31.9066 52.0648 31C52.0648 30.0933 51.9848 29.2133 51.8781 28.3333H56.3848C56.5981 29.1866 56.7314 30.08 56.7314 31C56.7314 31.92 56.5981 32.8133 56.3848 33.6666H51.8781Z" fill="white"/>
</svg>
