<svg width="36" height="64" viewBox="0 0 36 64" fill="none" xmlns="http://www.w3.org/2000/svg">
<path d="M0 50.4309C0 45.7825 1.39664 42.4589 3.33774 40.4369C5.61025 38.0662 9.56346 36.8809 15.221 36.8809H20.4999C26.1575 36.8809 30.1107 38.0662 32.3832 40.4369C34.3243 42.4589 35.7209 45.7825 35.7209 50.4309C35.7209 55.0792 34.3243 58.4028 32.3832 60.4249C30.1107 62.7955 26.1575 63.9809 20.4999 63.9809H15.221C9.56346 63.9809 5.61025 62.7955 3.33774 60.4249C1.39664 58.4028 0 55.0792 0 50.4309ZM16.8781 46.1311C14.4399 46.1311 12.8302 46.5727 12.049 47.4327C11.5756 47.9672 11.0548 48.9666 11.0548 50.4309C11.0548 51.9183 11.5519 52.9177 12.0253 53.4523C12.8065 54.3122 14.4162 54.7538 16.8781 54.7538H18.8665C21.3047 54.7538 22.9144 54.3122 23.6956 53.4523C24.169 52.9177 24.6661 51.9183 24.6661 50.4309C24.6661 48.9666 24.1454 47.9672 23.6719 47.4327C22.8907 46.5727 21.3047 46.1311 18.8665 46.1311H16.8781Z" fill="white"/>
<path d="M12.4985 32.9761H2.20117V24.2372H33.5665V32.9761H23.3402H12.4985Z" fill="white"/>
<path d="M12.4985 20.8671H2.20117V12.1282H33.5665V20.8671H23.3402H12.4985Z" fill="white"/>
<path d="M12.4985 8.75811H2.20117V0.019165H33.5665V8.75811H23.3402H12.4985Z" fill="white"/>
</svg>
