<svg width="105" height="64" viewBox="0 0 105 64" fill="none" xmlns="http://www.w3.org/2000/svg">
<path fill-rule="evenodd" clip-rule="evenodd" d="M30.0156 32C30.0156 26.1649 31.7156 21.9838 34.1508 19.4568C36.9075 16.4703 41.8237 15 48.7615 15H55.2859C62.2237 15 67.1399 16.4703 69.9426 19.4568C72.3318 21.9838 74.0318 26.1649 74.0318 32C74.0318 37.8351 72.3318 42.0162 69.9426 44.5432C67.1399 47.5297 62.2237 49 55.2859 49H48.7615C41.8237 49 36.9075 47.5297 34.1508 44.5432C31.7156 42.0162 30.0156 37.8351 30.0156 32ZM56.2507 20.3757C57.3994 20.4216 58.4561 21.3865 58.4561 22.5351V39.1676H59.8345C60.294 39.1676 60.6615 38.8 60.6615 38.3405V37.8811V37.2378V35.7676V27.9108C60.6615 27.4514 61.0291 27.0838 61.5345 27.0838H61.994C62.4534 27.0838 62.8669 27.4514 62.8669 27.9108V35.7676V37.2378V39.2595C62.8669 40.2703 62.1777 41.1892 61.2129 41.4189H58.4561V41.4649C58.4561 42.6135 57.5372 43.5784 56.3886 43.6243H56.3426C50.5075 43.6243 53.5399 43.6243 47.7507 43.6243H47.6588C46.5102 43.5784 45.5913 42.6135 45.5913 41.4649V24.8324H44.2129C43.7534 24.8324 43.3859 25.2 43.3859 25.6595V26.1189V26.7622V28.2324V36.0892C43.3859 36.5486 43.0183 36.9162 42.5588 36.9162H42.0534C41.594 36.9162 41.1805 36.5486 41.1805 36.0892V28.2324V26.7622V24.7405C41.1805 23.7297 41.8697 22.8108 42.8345 22.5811H45.5913V22.5351C45.5913 21.3865 46.5102 20.4216 47.6588 20.3757H56.2507ZM60.6615 23.9595V23.4541C60.6615 22.9946 61.0291 22.5811 61.5345 22.5811H61.994C62.4534 22.5811 62.8669 22.9946 62.8669 23.4541V23.9595C62.8669 24.4649 62.4534 24.8324 61.994 24.8324H61.5345C61.0291 24.8324 60.6615 24.4649 60.6615 23.9595ZM41.1805 40.5459V40.0405C41.1805 39.5811 41.594 39.1676 42.0534 39.1676H42.5588C43.0183 39.1676 43.3859 39.5811 43.3859 40.0405V40.5459C43.3859 41.0054 43.0183 41.4189 42.5588 41.4189H42.0534C41.594 41.4189 41.1805 41.0054 41.1805 40.5459ZM54.1372 39.7189C54.0913 39.8108 54.0913 39.9027 54.0913 40.0405V40.5459C54.0913 40.6838 54.0913 40.7757 54.1372 40.8676C53.9994 41.1892 53.7237 41.373 53.3561 41.373H52.4832C52.4372 41.4189 52.3453 41.4189 52.2534 41.4189H51.794C51.7021 41.4189 51.6102 41.4189 51.5642 41.373H50.6913C50.2318 41.373 49.8183 41.0054 49.8183 40.5V40.0405C49.8183 39.5811 50.2318 39.1676 50.6913 39.1676H51.6561C51.7021 39.1676 51.748 39.1676 51.794 39.1676H52.2534C52.2994 39.1676 52.3453 39.1676 52.3913 39.1676H53.3561C53.7237 39.1676 54.0453 39.3973 54.1372 39.7189ZM49.9102 24.2811C49.9561 24.1892 49.9561 24.0973 49.9561 23.9595V23.4541C49.9561 23.3162 49.9561 23.2243 49.9102 23.1324C50.048 22.8108 50.3237 22.5811 50.6913 22.5811H51.1507H52.8967H53.3561C53.8156 22.5811 54.2291 22.9946 54.2291 23.4541V23.9595C54.2291 24.4649 53.8156 24.8324 53.3561 24.8324H52.8967H51.1507H50.6913C50.3237 24.8324 50.048 24.6027 49.9102 24.2811ZM49.9102 27.0838C55.7453 26.9919 48.3021 27.0838 54.1372 27.0838H54.1832H55.4237H56.2507V27.9108V29.1973V34.8027V36.0892V36.9162H55.4237H54.1832H54.1372C48.3021 36.9162 55.7453 36.9162 49.9102 36.9162H49.8642H48.6237H47.7967V36.0892V34.8027V29.1973V27.9108V27.0838H48.6237H49.8642H49.9102Z" fill="white"/>
</svg>
