<svg width="93" height="62" viewBox="0 0 93 62" fill="none" xmlns="http://www.w3.org/2000/svg">
<path d="M42.5578 22.3467C42.3178 23.2 42.1978 24.0933 42.1978 25C42.1978 30.44 46.6245 34.8667 52.0645 34.8667C52.9711 34.8667 53.8645 34.7467 54.7178 34.5067C53.3311 37.92 49.9711 40.3333 46.0645 40.3333C40.9178 40.3333 36.7311 36.1467 36.7311 31C36.7311 27.0933 39.1445 23.7333 42.5578 22.3467ZM46.0645 19C39.4378 19 34.0645 24.3733 34.0645 31C34.0645 37.6267 39.4378 43 46.0645 43C52.6911 43 58.0645 37.6267 58.0645 31C58.0645 30.3867 58.0111 29.7733 57.9311 29.1867C56.6245 31.0133 54.4911 32.2 52.0645 32.2C48.0911 32.2 44.8645 28.9733 44.8645 25C44.8645 22.5867 46.0511 20.44 47.8778 19.1333C47.2911 19.0533 46.6778 19 46.0645 19Z" fill="white"/>
</svg>
